<svg xmlns="http://www.w3.org/2000/svg" version="1.1" xmlns:xlink="http://www.w3.org/1999/xlink" xmlns:svgjs="http://svgjs.dev/svgjs" width="2000" height="1247" viewBox="0 0 2000 1247"><g transform="matrix(1,0,0,1,-1.2121212121212466,0.504858299595071)"><svg viewBox="0 0 396 247" data-background-color="#ffffff" preserveAspectRatio="xMidYMid meet" height="1247" width="2000" xmlns="http://www.w3.org/2000/svg" xmlns:xlink="http://www.w3.org/1999/xlink"><g id="tight-bounds" transform="matrix(1,0,0,1,0.2400000000000091,-0.09999999999999432)"><svg viewBox="0 0 395.52 247.2" height="247.2" width="395.52"><g><svg></svg></g><g><svg viewBox="0 0 395.52 247.2" height="247.2" width="395.52"><mask id="8a225894-0851-4375-a8cf-fa0212c4ad57"><rect width="640" height="400" fill="white"></rect><g transform="matrix(1,0,0,1,39.55199999999999,112.95723228995057)"><svg viewBox="0 0 316.416 21.285535420098842" height="21.285535420098842" width="316.416"><g><svg viewBox="0 0 316.416 21.285535420098842" height="21.285535420098842" width="316.416"><g><svg viewBox="0 0 316.416 21.285535420098842" height="21.285535420098842" width="316.416"><g><svg viewBox="0 0 316.416 21.285535420098842" height="21.285535420098842" width="316.416"><g id="SvgjsG3234"><svg viewBox="0 0 316.416 21.285535420098842" height="21.285535420098842" width="316.416" id="SvgjsSvg3233"><g><svg viewBox="0 0 316.416 21.285535420098842" height="21.285535420098842" width="316.416"><g transform="matrix(1,0,0,1,0,0)"><svg width="316.416" viewBox="-0.5 -33.25 550.97 37.75" height="21.285535420098842" data-palette-color="#1f51ff"><g class="wordmark-text-0" data-fill-palette-color="primary" id="SvgjsG3232"><path d="M4-25.3L4-25.3 9.7-28.75 20-28.75 20-23.1 10.3-23.1 10.3-17.2 20-17.2 20-11.5 10.3-11.5 10.3 0 4 0 4-25.3ZM38.45-25.3L38.45-25.3 32.55-28.75 22.25-28.75 22.25-23.1 32.15-23.1 32.15-17.2 22.25-17.2 22.25-11.5 32.15-11.5 32.15 0 38.45 0 38.45-25.3ZM47.45 0L47.45-28.75 53.15-28.75 63.45-19.05 63.45-11.5 53.75-20.85 53.75 0 47.45 0ZM65.7-17.2L75.6-8.1 75.6-28.75 81.9-28.75 81.9 0 76 0 65.7-9.9 65.7-17.2ZM90.9-25.3L90.9-25.3 96.75-28.75 107.1-28.75 107.1-23.1 97.2-23.1 97.2-5.85 106.9-5.85 106.9 0 96.75 0 90.9-3.4 90.9-25.3ZM125.35-25.3L125.35-25.3 119.7-28.75 109.35-28.75 109.35-23.1 119.05-23.1 119.05-5.85 109.35-5.85 109.35 0 119.7 0 125.35-3.4 125.35-25.3ZM134.34 0L134.34-28.75 150.34-28.75 150.34-23.1 140.64-23.1 140.64-5.85 150.34-5.85 150.34 0 134.34 0ZM168.79-3.4L168.79-25.3 163.14-28.75 152.79-28.75 152.79-23.1 162.49-23.1 162.49-5.85 152.79-5.85 152.79 0 163.14 0 168.79-3.4ZM177.79-28.75L177.79-28.75 193.79-28.75 193.79-22.85 184.09-22.85 184.09-17.2 193.79-17.2 193.79-11.5 184.09-11.5 184.09-5.65 193.59-5.65 193.59 0 177.79 0 177.79-28.75ZM196.24-5.65L196.24-5.65 196.24 0 212.24 0 212.24-5.65 196.24-5.65ZM212.24-22.85L212.24-22.85 212.24-28.75 196.04-28.75 196.04-22.85 212.24-22.85ZM204.14-11.5L204.14-11.5 204.14-17.2 196.04-17.2 196.04-11.5 204.14-11.5ZM251.14-10.95L247.09-5.8 251.14-2.9 245.39-0.05 243.64-1.2 242.54-0.05 233.94-0.05 233.94-5.15 237.74-5.15 233.94-7.7 233.94-17.75 238.54-19.55 238.54-21.95 233.94-21.95 233.94-28.6 236.79-28.6 244.29-25.9 244.29-16.05 236.59-13 242.54-8.65 245.39-12.65 251.14-10.95ZM231.54-5.15L231.54-0.05 222.49-0.05 216.74-2.95 216.74-10.95 224.49-14 221.34-16.05 221.34-25.9 228.64-28.6 231.54-28.6 231.54-21.95 227.14-21.95 227.14-19.55 231.54-16.05 231.54-9.3 229.99-10.35 222.94-7.5 222.94-5.15 231.54-5.15ZM257.63-3.4L257.63-25.3 263.49-28.75 273.84-28.75 273.84-23.1 264.13-23.1 264.13-5.85 273.63-5.85 273.63 0 263.49 0 257.63-3.4ZM292.29-9.3L285.79-9.3 285.79-5.85 276.29-5.85 276.29 0 286.44 0 292.29-3.4 292.29-9.3ZM285.79-19.6L292.29-19.6 292.29-25.3 286.44-28.75 276.09-28.75 276.09-23.1 285.79-23.1 285.79-19.6ZM300.28-25.3L300.28-25.3 305.98-28.75 316.28-28.75 316.28-23.1 306.58-23.1 306.58-17.2 316.28-17.2 316.28-11.5 306.58-11.5 306.58 0 300.28 0 300.28-25.3ZM334.73-25.3L334.73-25.3 328.83-28.75 318.53-28.75 318.53-23.1 328.43-23.1 328.43-17.2 318.53-17.2 318.53-11.5 328.43-11.5 328.43 0 334.73 0 334.73-25.3ZM374.68-28.75L374.68-23.1 360.28-23.1 360.28 0 353.38 0 353.38-23.1 340.23-23.1 340.23-28.75 374.68-28.75ZM381.18-28.75L381.18-28.75 387.48-28.75 387.48-17.2 397.18-17.2 397.18-11.5 387.48-11.5 387.48 0 381.18 0 381.18-28.75ZM415.63-28.75L415.63-28.75 409.33-28.75 409.33-17.2 399.63-17.2 399.63-11.5 409.33-11.5 409.33 0 415.63 0 415.63-28.75ZM424.63-25.3L424.63-25.3 430.48-28.75 440.82-28.75 440.82-23.1 430.93-23.1 430.93-5.85 440.63-5.85 440.63 0 430.48 0 424.63-3.4 424.63-25.3ZM459.07-25.3L459.07-25.3 453.43-28.75 443.07-28.75 443.07-23.1 452.77-23.1 452.77-5.85 443.07-5.85 443.07 0 453.43 0 459.07-3.4 459.07-25.3ZM468.07 0L468.07-28.75 484.07-28.75 484.07-23.1 474.37-23.1 474.37-5.85 484.07-5.85 484.07 0 468.07 0ZM502.52-3.4L502.52-25.3 496.87-28.75 486.52-28.75 486.52-23.1 496.22-23.1 496.22-5.85 486.52-5.85 486.52 0 496.87 0 502.52-3.4ZM511.52-28.75L511.52-28.75 527.52-28.75 527.52-22.85 517.82-22.85 517.82-17.2 527.52-17.2 527.52-11.5 517.82-11.5 517.82-5.65 527.32-5.65 527.32 0 511.52 0 511.52-28.75ZM529.97-5.65L529.97-5.65 529.97 0 545.97 0 545.97-5.65 529.97-5.65ZM545.97-22.85L545.97-22.85 545.97-28.75 529.77-28.75 529.77-22.85 545.97-22.85ZM537.87-11.5L537.87-11.5 537.87-17.2 529.77-17.2 529.77-11.5 537.87-11.5Z" fill="black" stroke-width="8" stroke="black" stroke-linejoin="round"></path></g></svg></g></svg></g></svg></g></svg></g><g></g></svg></g></svg></g></svg></g></mask><g transform="matrix(1,0,0,1,39.55199999999999,112.95723228995057)"><svg viewBox="0 0 316.416 21.285535420098842" height="21.285535420098842" width="316.416"><g><svg viewBox="0 0 316.416 21.285535420098842" height="21.285535420098842" width="316.416"><g><svg viewBox="0 0 316.416 21.285535420098842" height="21.285535420098842" width="316.416"><g><svg viewBox="0 0 316.416 21.285535420098842" height="21.285535420098842" width="316.416"><g id="textblocktransform"><svg viewBox="0 0 316.416 21.285535420098842" height="21.285535420098842" width="316.416" id="textblock"><g><svg viewBox="0 0 316.416 21.285535420098842" height="21.285535420098842" width="316.416"><g transform="matrix(1,0,0,1,0,0)"><svg width="316.416" viewBox="-0.5 -33.25 550.97 37.75" height="21.285535420098842" data-palette-color="#1f51ff"><g class="wordmark-text-0" data-fill-palette-color="primary" id="text-0"><path d="M4-25.3L4-25.3 9.7-28.75 20-28.75 20-23.1 10.3-23.1 10.3-17.2 20-17.2 20-11.5 10.3-11.5 10.3 0 4 0 4-25.3ZM38.45-25.3L38.45-25.3 32.55-28.75 22.25-28.75 22.25-23.1 32.15-23.1 32.15-17.2 22.25-17.2 22.25-11.5 32.15-11.5 32.15 0 38.45 0 38.45-25.3ZM47.45 0L47.45-28.75 53.15-28.75 63.45-19.05 63.45-11.5 53.75-20.85 53.75 0 47.45 0ZM65.7-17.2L75.6-8.1 75.6-28.75 81.9-28.75 81.9 0 76 0 65.7-9.9 65.7-17.2ZM90.9-25.3L90.9-25.3 96.75-28.75 107.1-28.75 107.1-23.1 97.2-23.1 97.2-5.85 106.9-5.85 106.9 0 96.75 0 90.9-3.4 90.9-25.3ZM125.35-25.3L125.35-25.3 119.7-28.75 109.35-28.75 109.35-23.1 119.05-23.1 119.05-5.85 109.35-5.85 109.35 0 119.7 0 125.35-3.4 125.35-25.3ZM134.34 0L134.34-28.75 150.34-28.75 150.34-23.1 140.64-23.1 140.64-5.85 150.34-5.85 150.34 0 134.34 0ZM168.79-3.4L168.79-25.3 163.14-28.75 152.79-28.75 152.79-23.1 162.49-23.1 162.49-5.85 152.79-5.85 152.79 0 163.14 0 168.79-3.4ZM177.79-28.75L177.79-28.75 193.79-28.75 193.79-22.85 184.09-22.85 184.09-17.2 193.79-17.2 193.79-11.5 184.09-11.5 184.09-5.65 193.59-5.65 193.59 0 177.79 0 177.79-28.75ZM196.24-5.65L196.24-5.65 196.24 0 212.24 0 212.24-5.65 196.24-5.65ZM212.24-22.85L212.24-22.85 212.24-28.75 196.04-28.75 196.04-22.85 212.24-22.85ZM204.14-11.5L204.14-11.5 204.14-17.2 196.04-17.2 196.04-11.5 204.14-11.5ZM251.14-10.95L247.09-5.8 251.14-2.9 245.39-0.05 243.64-1.2 242.54-0.05 233.94-0.05 233.94-5.15 237.74-5.15 233.94-7.7 233.94-17.75 238.54-19.55 238.54-21.95 233.94-21.95 233.94-28.6 236.79-28.6 244.29-25.9 244.29-16.05 236.59-13 242.54-8.65 245.39-12.65 251.14-10.95ZM231.54-5.15L231.54-0.05 222.49-0.05 216.74-2.95 216.74-10.95 224.49-14 221.34-16.05 221.34-25.9 228.64-28.6 231.54-28.6 231.54-21.95 227.14-21.95 227.14-19.55 231.54-16.05 231.54-9.3 229.99-10.35 222.94-7.5 222.94-5.15 231.54-5.15ZM257.63-3.4L257.63-25.3 263.49-28.75 273.84-28.75 273.84-23.1 264.13-23.1 264.13-5.85 273.63-5.85 273.63 0 263.49 0 257.63-3.4ZM292.29-9.3L285.79-9.3 285.79-5.85 276.29-5.85 276.29 0 286.44 0 292.29-3.4 292.29-9.3ZM285.79-19.6L292.29-19.6 292.29-25.3 286.44-28.75 276.09-28.75 276.09-23.1 285.79-23.1 285.79-19.6ZM300.28-25.3L300.28-25.3 305.98-28.75 316.28-28.75 316.28-23.1 306.58-23.1 306.58-17.2 316.28-17.2 316.28-11.5 306.58-11.5 306.58 0 300.28 0 300.28-25.3ZM334.73-25.3L334.73-25.3 328.83-28.75 318.53-28.75 318.53-23.1 328.43-23.1 328.43-17.2 318.53-17.2 318.53-11.5 328.43-11.5 328.43 0 334.73 0 334.73-25.3ZM374.68-28.75L374.68-23.1 360.28-23.1 360.28 0 353.38 0 353.38-23.1 340.23-23.1 340.23-28.75 374.68-28.75ZM381.18-28.75L381.18-28.75 387.48-28.75 387.48-17.2 397.18-17.2 397.18-11.5 387.48-11.5 387.48 0 381.18 0 381.18-28.75ZM415.63-28.75L415.63-28.75 409.33-28.75 409.33-17.2 399.63-17.2 399.63-11.5 409.33-11.5 409.33 0 415.63 0 415.63-28.75ZM424.63-25.3L424.63-25.3 430.48-28.75 440.82-28.75 440.82-23.1 430.93-23.1 430.93-5.85 440.63-5.85 440.63 0 430.48 0 424.63-3.4 424.63-25.3ZM459.07-25.3L459.07-25.3 453.43-28.75 443.07-28.75 443.07-23.1 452.77-23.1 452.77-5.85 443.07-5.85 443.07 0 453.43 0 459.07-3.4 459.07-25.3ZM468.07 0L468.07-28.75 484.07-28.75 484.07-23.1 474.37-23.1 474.37-5.85 484.07-5.85 484.07 0 468.07 0ZM502.52-3.4L502.52-25.3 496.87-28.75 486.52-28.75 486.52-23.1 496.22-23.1 496.22-5.85 486.52-5.85 486.52 0 496.87 0 502.52-3.4ZM511.52-28.75L511.52-28.75 527.52-28.75 527.52-22.85 517.82-22.85 517.82-17.2 527.52-17.2 527.52-11.5 517.82-11.5 517.82-5.65 527.32-5.65 527.32 0 511.52 0 511.52-28.75ZM529.97-5.65L529.97-5.65 529.97 0 545.97 0 545.97-5.65 529.97-5.65ZM545.97-22.85L545.97-22.85 545.97-28.75 529.77-28.75 529.77-22.85 545.97-22.85ZM537.87-11.5L537.87-11.5 537.87-17.2 529.77-17.2 529.77-11.5 537.87-11.5Z" fill="#1f51ff" data-fill-palette-color="primary"></path></g></svg></g></svg></g></svg></g></svg></g><g></g></svg></g></svg></g></svg></g><g mask="url(#8a225894-0851-4375-a8cf-fa0212c4ad57)"><g transform="matrix(9.838, 0, 0, 9.838, 1, 15.381593923713638)"><svg xmlns="http://www.w3.org/2000/svg" viewBox="4 12.999958723695224 40 22.00008255260955" x="0" y="0" height="22.00008255260955" width="40" class="icon-none" data-fill-palette-color="accent" id="none"><path d="M5 25h9v9a1 1 0 0 0 1.486 0.874L32 25.7V34a1 1 0 0 0 2 0V25h9a1 1 0 0 0 0-2H34V14a1 1 0 0 0-2 0v8.3L15.486 13.126A1 1 0 0 0 14 14v9H5a1 1 0 0 0 0 2Zm11-9.3L30.941 24 16 32.3Z" fill="#fab200" data-fill-palette-color="accent"></path></svg></g></g></svg></g><defs></defs></svg><rect width="395.52" height="247.2" fill="none" stroke="none" visibility="hidden"></rect></g></svg></g></svg>